<?xml version="1.0" standalone="no"?><!DOCTYPE svg PUBLIC "-//W3C//DTD SVG 1.1//EN" "http://www.w3.org/Graphics/SVG/1.1/DTD/svg11.dtd"><svg t="1757650755133" class="icon" viewBox="0 0 1024 1024" version="1.1" xmlns="http://www.w3.org/2000/svg" p-id="1610" xmlns:xlink="http://www.w3.org/1999/xlink" width="200" height="200"><path d="M149.333333 768V256A106.666667 106.666667 0 0 1 256 149.333333h180.181333a21.333333 21.333333 0 0 1 0 42.666667H256A64 64 0 0 0 192 256v512A64 64 0 0 0 256 832h512a64 64 0 0 0 64-64v-180.181333a21.333333 21.333333 0 0 1 42.666667 0V768a106.666667 106.666667 0 0 1-106.666667 106.666667H256A106.666667 106.666667 0 0 1 149.333333 768z" fill="#409EFF" p-id="1611"></path><path d="M795.562667 283.562667a21.333333 21.333333 0 1 1 30.165333 30.165333l-298.666667 298.666667a21.333333 21.333333 0 0 1-30.165333 0l-170.666667-170.666667a21.333333 21.333333 0 1 1 30.208-30.165333L512 567.168l283.562667-283.605333z" fill="#409EFF" p-id="1612"></path></svg>