<?xml version="1.0" standalone="no"?><!DOCTYPE svg PUBLIC "-//W3C//DTD SVG 1.1//EN" "http://www.w3.org/Graphics/SVG/1.1/DTD/svg11.dtd"><svg t="1757650955930" class="icon" viewBox="0 0 1024 1024" version="1.1" xmlns="http://www.w3.org/2000/svg" p-id="2221" xmlns:xlink="http://www.w3.org/1999/xlink" width="200" height="200"><path d="M746.666667 261.333333h-469.333334V789.333333A64 64 0 0 0 341.333333 853.333333h341.333334a64 64 0 0 0 64-64V261.333333z m42.666666 528A106.666667 106.666667 0 0 1 682.666667 896H341.333333a106.666667 106.666667 0 0 1-106.666666-106.666667V218.666667h554.666666V789.333333z" fill="#409EFF" p-id="2222"></path><path d="M853.333333 218.666667a21.333333 21.333333 0 0 1 0 42.666666H170.666667a21.333333 21.333333 0 0 1 0-42.666666h682.666666z" fill="#409EFF" p-id="2223"></path><path d="M405.333333 170.666667v48h213.333334V170.666667h-213.333334z m256 90.666666h-298.666666V170.666667a42.666667 42.666667 0 0 1 42.666666-42.666667h213.333334a42.666667 42.666667 0 0 1 42.666666 42.666667v90.666666zM362.666667 693.333333V375.978667a21.333333 21.333333 0 0 1 42.666666 0v317.354666a21.333333 21.333333 0 0 1-42.666666 0zM618.666667 693.333333V375.978667a21.333333 21.333333 0 0 1 42.666666 0v317.354666a21.333333 21.333333 0 0 1-42.666666 0zM490.666667 693.333333V375.978667a21.333333 21.333333 0 0 1 42.666666 0v317.354666a21.333333 21.333333 0 0 1-42.666666 0z" fill="#409EFF" p-id="2224"></path></svg>