<?xml version="1.0" standalone="no"?><!DOCTYPE svg PUBLIC "-//W3C//DTD SVG 1.1//EN" "http://www.w3.org/Graphics/SVG/1.1/DTD/svg11.dtd"><svg t="1757650750694" class="icon" viewBox="0 0 1024 1024" version="1.1" xmlns="http://www.w3.org/2000/svg" p-id="1455" xmlns:xlink="http://www.w3.org/1999/xlink" width="200" height="200"><path d="M448 696.746667v-35.413334a21.333333 21.333333 0 0 1 42.666667 0v35.413334a64 64 0 0 0 64 64h128l4.266666 0.384a21.333333 21.333333 0 0 1 11.093334 6.101333l42.794666 44.586667 42.794667-44.586667a21.376 21.376 0 0 1 15.402667-6.528H810.666667a64 64 0 0 0 64-64V554.666667a64 64 0 0 0-64-64h-42.666667a21.333333 21.333333 0 0 1 0-42.666667h42.666667a106.666667 106.666667 0 0 1 106.666666 106.666667v142.08a106.666667 106.666667 0 0 1-106.666666 106.666666h-2.56l-51.84 54.016a21.418667 21.418667 0 0 1-30.805334 0l-51.84-54.058666H554.666667a106.666667 106.666667 0 0 1-106.666667-106.666667z" fill="#409EFF" p-id="1456"></path><path d="M746.666667 256a64 64 0 0 0-57.472-63.658667L682.666667 192H213.333333A64 64 0 0 0 149.333333 256v304.768l0.341334 6.528A64 64 0 0 0 213.333333 624.768h54.656l4.181334 0.426667a21.333333 21.333333 0 0 1 10.837333 5.76l64.981333 64.341333 65.024-64.341333 3.2-2.645334a21.376 21.376 0 0 1 11.776-3.541333H682.666667a64 64 0 0 0 64-64V256z m42.666666 304.768a106.666667 106.666667 0 0 1-106.666666 106.666667h-245.888l-73.813334 73.045333a21.333333 21.333333 0 0 1-29.952 0l-73.813333-73.045333H213.333333a106.666667 106.666667 0 0 1-106.112-95.786667l-0.554666-10.88V256A106.666667 106.666667 0 0 1 213.333333 149.333333h469.333334l10.922666 0.554667A106.666667 106.666667 0 0 1 789.333333 256v304.768z" fill="#409EFF" p-id="1457"></path><path d="M426.666667 437.333333a21.333333 21.333333 0 0 1 0 42.666667H256a21.333333 21.333333 0 0 1 0-42.666667h170.666667zM554.666667 266.666667a21.333333 21.333333 0 0 1 0 42.666666H256a21.333333 21.333333 0 0 1 0-42.666666h298.666667z" fill="#409EFF" p-id="1458"></path></svg>