<?xml version="1.0" standalone="no"?><!DOCTYPE svg PUBLIC "-//W3C//DTD SVG 1.1//EN" "http://www.w3.org/Graphics/SVG/1.1/DTD/svg11.dtd"><svg t="1757650951328" class="icon" viewBox="0 0 1024 1024" version="1.1" xmlns="http://www.w3.org/2000/svg" p-id="2069" xmlns:xlink="http://www.w3.org/1999/xlink" width="200" height="200"><path d="M361.130667 225.536a64 64 0 0 0-80.768 0l-4.864 4.352-2.944 2.944a64 64 0 0 0 0 90.496l140.117333 140.117333-109.226667 109.226667a64 64 0 0 0 0 90.496l157.44 157.44 4.821334 4.352a64 64 0 0 0 85.674666-4.394667l311.893334-311.850666a64 64 0 0 0 4.352-85.632l-4.394667-4.864-157.397333-157.44a64 64 0 0 0-90.496 0l-109.226667 109.226666-140.117333-140.117333-4.864-4.352z m144.981333 84.138667l79.061333-79.018667a106.666667 106.666667 0 0 1 150.826667 0l157.44 157.397333a106.666667 106.666667 0 0 1 0 150.826667l-311.893333 311.893333a106.666667 106.666667 0 0 1-142.762667 7.296l-8.106667-7.338666-157.354666-157.397334a106.666667 106.666667 0 0 1 0-150.826666l79.018666-79.061334-109.952-109.952a106.666667 106.666667 0 0 1 0-150.826666l2.944-2.944 8.106667-7.338667a106.666667 106.666667 0 0 1 142.72 7.338667l109.952 109.952z" fill="#409EFF" p-id="2070"></path><path d="M626.218667 775.893333l-92.714667-92.672a21.333333 21.333333 0 0 1 30.165333-30.165333l92.714667 92.672a21.333333 21.333333 0 0 1-30.165333 30.165333z m162.176-162.176l-92.672-92.672a21.333333 21.333333 0 0 1 30.165333-30.165333l92.672 92.672a21.333333 21.333333 0 0 1-30.165333 30.165333z m-50.218667-350.72a21.333333 21.333333 0 1 1 30.208 30.165334L335.786667 725.717333a21.333333 21.333333 0 1 1-30.165334-30.165333L738.133333 262.997333z" fill="#409EFF" p-id="2071"></path></svg>