<?xml version="1.0" standalone="no"?><!DOCTYPE svg PUBLIC "-//W3C//DTD SVG 1.1//EN" "http://www.w3.org/Graphics/SVG/1.1/DTD/svg11.dtd"><svg t="1757650765336" class="icon" viewBox="0 0 1024 1024" version="1.1" xmlns="http://www.w3.org/2000/svg" p-id="1764" xmlns:xlink="http://www.w3.org/1999/xlink" width="200" height="200"><path d="M896 512a384 384 0 1 0-768 0 384 384 0 0 0 768 0z m42.666667 0c0 235.648-191.018667 426.666667-426.666667 426.666667S85.333333 747.648 85.333333 512 276.352 85.333333 512 85.333333s426.666667 191.018667 426.666667 426.666667z" fill="#409EFF" p-id="1765"></path><path d="M320 512c0-71.082667 38.656-133.12 96-166.272a21.333333 21.333333 0 1 1 21.333333 36.906667 149.333333 149.333333 0 1 0 149.333334 0 21.333333 21.333333 0 1 1 21.333333-36.906667A192 192 0 1 1 320 512z" fill="#409EFF" p-id="1766"></path><path d="M490.666667 415.189333V298.666667a21.333333 21.333333 0 0 1 42.666666 0v116.522666a21.333333 21.333333 0 0 1-42.666666 0z" fill="#409EFF" p-id="1767"></path></svg>