<?xml version="1.0" standalone="no"?><!DOCTYPE svg PUBLIC "-//W3C//DTD SVG 1.1//EN" "http://www.w3.org/Graphics/SVG/1.1/DTD/svg11.dtd"><svg t="1757651248837" class="icon" viewBox="0 0 1047 1024" version="1.1" xmlns="http://www.w3.org/2000/svg" p-id="6853" xmlns:xlink="http://www.w3.org/1999/xlink" width="204.4921875" height="200"><path d="M977.804511 39.266165c19.24812-4.619549 15.398496 9.239098 15.398497 19.248121v916.980451c-304.120301 0-607.470677 0-911.590978-0.769925-9.239098 0-30.796992 12.318797-26.947368-14.628571H61.593985c13.088722 2.309774 26.947368 6.929323 40.03609 6.929323 280.252632 0.769925 561.275188 0 841.52782 0.769925 33.876692 0 43.115789-9.239098 43.115789-43.11579-1.53985-279.482707-0.769925-559.735338-0.769925-839.218045 0-13.088722-4.619549-26.947368-6.929323-40.03609-0.769925-1.53985-0.769925-3.849624-0.769925-6.159399z" fill="#FEFEFE" p-id="6854"></path><path d="M977.804511 39.266165V46.195489c-291.031579 0.769925-581.293233 1.53985-872.324812 0-35.416541 0-44.655639 9.239098-44.655639 44.655639 1.53985 290.261654 0.769925 579.753383 0 870.015037H53.894737V40.03609c307.969925-0.769925 615.93985-0.769925 923.909774-0.769925z" fill="#F8F5F0" p-id="6855"></path><path d="M61.593985 960.866165c0-290.261654 0.769925-579.753383 0-870.015037C60.82406 55.434586 70.063158 46.195489 105.479699 46.195489c291.031579 1.53985 581.293233 0.769925 872.324812 0 2.309774 13.088722 6.929323 26.947368 6.929324 40.03609 0.769925 279.482707 0 559.735338 0.769924 839.218045 0 33.876692-9.239098 43.115789-43.115789 43.11579-280.252632-1.53985-561.275188-0.769925-841.52782-0.769925-13.088722-0.769925-26.177444-4.619549-39.266165-6.929324z m23.867669-679.843609c0 62.36391 0.769925 124.72782 0 187.861655-0.769925 22.32782 5.389474 31.566917 30.027068 31.566917 123.957895-0.769925 247.915789-0.769925 372.643609 0 22.32782 0 28.487218-8.469173 28.487218-29.257143C515.849624 347.23609 515.849624 223.278195 516.619549 100.090226c0-24.637594-10.778947-29.257143-32.336842-29.257143-123.18797 0.769925-245.606015 0.769925-368.793985 0-23.867669 0-30.796992 8.469173-30.796993 31.566917 1.53985 58.514286 0.769925 118.568421 0.769925 178.622556z m214.039098 655.97594c61.593985 0 123.18797-0.769925 184.01203 0.769925 25.407519 0.769925 33.106767-8.469173 33.106767-33.106767-0.769925-113.948872-0.769925-227.12782 0-341.076692 0-23.867669-5.389474-33.876692-32.336842-33.876691-123.18797 1.53985-245.606015 1.53985-368.793985 0.769924-23.867669 0-30.796992 7.699248-30.796993 30.796993 0.769925 114.718797 0.769925 229.437594 0 344.926316 0 26.177444 10.009023 32.336842 33.876692 31.566917 60.054135-1.53985 120.108271-0.769925 180.932331-0.769925zM546.646617 284.87218c0 61.593985 0.769925 122.418045-0.769925 184.012031-0.769925 23.097744 6.929323 31.566917 30.796992 31.566917 115.488722-0.769925 230.207519-0.769925 345.696241 0 21.557895 0 32.336842-4.619549 32.336842-29.257143-0.769925-123.957895-0.769925-247.915789 0-371.103759 0-20.78797-6.929323-29.257143-28.487218-29.257143-116.258647 0.769925-233.287218 0.769925-349.545865 0-23.867669 0-30.796992 8.469173-30.027067 31.566917 0.769925 60.054135 0 121.64812 0 182.47218z m224.04812 498.911279c0 17.708271-0.769925 29.257143 0.769925 40.03609 0.769925 4.619549 6.929323 8.469173 10.009022 13.088722 4.619549-4.619549 10.778947-8.469173 13.088722-13.858647 8.469173-16.938346 16.168421-34.646617 24.637594-53.894737-26.947368-5.389474-25.407519-30.796992-24.637594-57.744361 1.53985-28.487218 0-56.974436 0-85.461654-5.389474-2.309774-10.778947-4.619549-16.168421-6.159398-36.956391 52.354887-73.142857 104.709774-115.488722 164.763909 42.345865-0.769925 72.372932-0.769925 107.789474-0.769924z" fill="#E6DDC9" p-id="6856"></path><path d="M85.461654 281.022556c0-60.054135 0.769925-120.108271-0.769925-180.162406-0.769925-23.097744 6.159398-31.566917 30.796993-31.566917 123.18797 0.769925 245.606015 0.769925 368.793985 0 21.557895 0 32.336842 4.619549 32.336842 29.257143C515.849624 222.508271 515.849624 346.466165 516.619549 469.654135c0 20.78797-6.159398 29.257143-28.487218 29.257143-123.957895-0.769925-247.915789-0.769925-372.643609 0-23.867669 0-30.796992-8.469173-30.027068-31.566917 0.769925-60.82406 0-123.957895 0-186.321805z m217.888722-33.876691c0 53.894737-0.769925 103.169925 0.769925 152.445112 0 6.159398 7.699248 13.088722 12.318797 19.248121 4.619549-5.389474 14.628571-11.548872 14.628571-16.938346 0.769925-64.673684 0.769925-128.577444 0.769925-204.8-27.717293 27.717293-63.133835 27.717293-72.372932 64.673684 12.318797-4.619549 24.637594-8.469173 43.885714-14.628571z" fill="#F0EADD" p-id="6857"></path><path d="M299.500752 936.998496c-60.054135 0-120.108271-0.769925-180.162406 0.769925-23.867669 0.769925-34.646617-5.389474-33.876692-31.566917 1.53985-114.718797 0.769925-229.437594 0-344.926316 0-23.097744 6.929323-31.566917 30.796993-30.796993 123.18797 0.769925 245.606015 0.769925 368.793985 0 26.177444 0 32.336842 10.009023 32.336842 33.876692-0.769925 113.948872-0.769925 227.12782 0 341.076692 0 24.637594-7.699248 33.876692-33.106767 33.106767-62.36391-2.309774-123.957895-1.53985-184.781955-1.53985z m-49.275188-130.887218c-1.53985 3.079699-3.849624 6.159398-5.389474 10.009023 15.398496 6.929323 30.027068 19.24812 46.195489 20.78797 30.796992 3.079699 59.284211-6.159398 73.142857-37.726316 15.398496-36.186466-4.619549-58.514286-23.097744-68.523308 6.159398-26.177444 15.398496-46.965414 12.318797-64.673685-2.309774-13.858647-19.24812-33.876692-32.336842-36.186466-21.557895-3.849624-44.655639 5.389474-66.983459 8.469173 0.769925 4.619549 1.53985 8.469173 2.309774 13.088722 5.389474 0 11.548872 2.309774 16.938346 0.769925 24.637594-6.159398 50.045113-10.009023 56.974436 22.327819 6.929323 33.876692-17.708271 39.266165-43.885714 41.57594-6.929323 0.769925-12.318797 10.009023-23.097744 18.478196 36.956391 10.009023 80.07218-1.53985 76.222556 49.275188-2.309774 30.027068-27.717293 35.416541-89.311278 22.327819zM546.646617 284.87218c0-61.593985 0.769925-122.418045 0-184.01203-0.769925-22.32782 6.159398-31.566917 30.027067-31.566917 116.258647 0.769925 233.287218 0.769925 349.545865 0 21.557895 0 28.487218 7.699248 28.487218 29.257143-0.769925 123.957895-0.769925 247.915789 0 371.103759 0 24.637594-10.778947 29.257143-32.336842 29.257143-115.488722-0.769925-230.207519-0.769925-345.696241 0-23.867669 0-30.796992-8.469173-30.796992-31.566917 1.53985-60.054135 0.769925-120.878195 0.769925-182.472181z m146.285714-32.336842c11.548872-6.929323 16.938346-13.088722 22.327819-13.088721 20.78797 0.769925 50.045113-4.619549 61.593985 6.929323 20.018045 20.018045 4.619549 44.655639-14.628571 62.36391-15.398496 13.858647-33.106767 24.637594-47.735338 38.49624-20.018045 18.478195-34.646617 40.03609-24.637594 72.372933 36.186466 0 72.372932 0.769925 107.789473-0.769925 6.929323 0 13.088722-6.929323 20.018045-10.778948-7.699248-4.619549-14.628571-12.318797-22.327819-13.088721-26.177444-1.53985-51.584962-0.769925-77.762406-0.769925-1.53985-3.849624-3.849624-8.469173-5.389474-12.318797 20.018045-16.168421 38.496241-33.106767 59.284211-48.505263 27.717293-20.018045 44.655639-45.425564 39.266165-80.842106-4.619549-31.566917-26.947368-44.655639-56.974436-44.655639-28.487218-0.769925-53.894737 2.309774-60.82406 44.655639z" fill="#EFE9DC" p-id="6858"></path><path d="M770.694737 783.783459H663.675188c42.345865-60.054135 78.532331-112.409023 115.488722-164.76391 5.389474 2.309774 10.778947 4.619549 16.168421 6.159398 0 28.487218 0.769925 56.974436 0 85.461655-1.53985 26.947368-3.079699 51.584962 24.637594 57.74436-8.469173 19.24812-16.168421 36.956391-24.637594 53.894737-3.079699 5.389474-8.469173 9.239098-13.088722 13.858647-3.849624-4.619549-10.009023-8.469173-10.009023-13.088722-2.309774-10.009023-1.53985-21.557895-1.539849-39.266165z m-1.53985-115.488722c-23.097744 33.876692-41.57594 61.593985-60.82406 90.851128h60.82406V668.294737z" fill="#896312" p-id="6859"></path><path d="M303.350376 247.145865c-18.478195 6.159398-31.566917 10.009023-43.885714 14.628571 8.469173-36.956391 44.655639-36.956391 72.372932-64.673684 0 76.222556 0 140.896241-0.769925 204.8 0 5.389474-9.239098 11.548872-14.628571 16.938346-4.619549-6.159398-12.318797-13.088722-12.318797-19.248121-1.53985-49.275188-0.769925-99.320301-0.769925-152.445112z" fill="#926F29" p-id="6860"></path><path d="M250.225564 806.111278c61.593985 13.088722 87.771429 6.929323 89.311278-22.327819 3.849624-50.815038-39.266165-39.266165-76.222556-49.275188 10.778947-8.469173 16.168421-17.708271 23.097744-18.478196 26.947368-2.309774 51.584962-7.699248 43.885714-41.57594-6.929323-32.336842-32.336842-28.487218-56.974436-22.327819-5.389474 1.53985-11.548872-0.769925-16.938346-0.769925-0.769925-4.619549-1.53985-8.469173-2.309774-13.088722 22.32782-3.849624 45.425564-12.318797 66.983459-8.469173 13.088722 2.309774 30.027068 22.32782 32.336842 36.186466 3.079699 17.708271-6.929323 38.496241-12.318797 64.673685 18.478195 10.009023 38.496241 32.336842 23.097744 68.523308-13.088722 31.566917-42.345865 40.806015-73.142857 37.726316-16.168421-1.53985-30.796992-13.088722-46.195489-20.78797 1.53985-3.079699 3.079699-6.929323 5.389474-10.009023z" fill="#886210" p-id="6861"></path><path d="M692.932331 252.535338c6.159398-42.345865 32.336842-45.425564 60.054135-45.425564 30.027068 0 52.354887 13.088722 56.974436 44.65564 5.389474 35.416541-10.778947 60.82406-39.266165 80.842105-20.78797 14.628571-39.266165 32.336842-59.284211 48.505263 1.53985 3.849624 3.849624 8.469173 5.389474 12.318797 26.177444 0 52.354887-0.769925 77.762406 0.769925 7.699248 0.769925 14.628571 8.469173 22.32782 13.088722-6.929323 3.849624-13.088722 10.778947-20.018046 10.778947-35.416541 0.769925-71.603008 0.769925-107.789473 0.769925-10.009023-32.336842 5.389474-53.894737 24.637594-72.372933 14.628571-13.858647 32.336842-24.637594 47.735338-38.49624 19.24812-16.938346 34.646617-42.345865 14.628572-62.36391-11.548872-11.548872-40.03609-6.159398-61.593985-6.929323-4.619549 0-10.009023 6.159398-21.557895 13.858646z" fill="#8C6717" p-id="6862"></path><path d="M769.154887 668.294737v90.851128H708.330827c19.24812-29.257143 37.726316-56.204511 60.82406-90.851128z" fill="#E9E1D1" p-id="6863"></path></svg>